<?xml version="1.0" encoding="UTF-8"?>
<svg xmlns="http://www.w3.org/2000/svg" xmlns:xlink="http://www.w3.org/1999/xlink" width="200px" height="200px" viewBox="0 0 200 200" version="1.1">
<g id="surface1">
<path style=" stroke:none;fill-rule:nonzero;fill:rgb(0%,0%,0%);fill-opacity:1;" d="M 17.492188 0.328125 L 182.527344 0.328125 C 192.007812 0.328125 199.691406 8.015625 199.691406 17.492188 L 199.691406 182.527344 C 199.691406 192.007812 192.007812 199.691406 182.527344 199.691406 L 17.492188 199.691406 C 8.015625 199.691406 0.328125 192.007812 0.328125 182.527344 L 0.328125 17.492188 C 0.328125 8.015625 8.015625 0.328125 17.492188 0.328125 Z M 17.492188 0.328125 "/>
<path style=" stroke:none;fill-rule:nonzero;fill:rgb(100%,100%,100%);fill-opacity:1;" d="M 17.492188 0.988281 L 182.527344 0.988281 C 191.644531 0.988281 199.03125 8.378906 199.03125 17.492188 L 199.03125 182.527344 C 199.03125 191.644531 191.644531 199.03125 182.527344 199.03125 L 17.492188 199.03125 C 8.378906 199.03125 0.988281 191.644531 0.988281 182.527344 L 0.988281 17.492188 C 0.988281 8.378906 8.378906 0.988281 17.492188 0.988281 Z M 17.492188 0.988281 "/>
<path style=" stroke:none;fill-rule:nonzero;fill:rgb(86.27451%,0%,0%);fill-opacity:1;" d="M 192.429688 100.011719 C 192.429688 151.054688 151.054688 192.429688 100.011719 192.429688 C 48.96875 192.429688 7.589844 151.054688 7.589844 100.011719 C 7.589844 48.96875 48.96875 7.589844 100.011719 7.589844 C 151.054688 7.589844 192.429688 48.96875 192.429688 100.011719 Z M 192.429688 100.011719 "/>
<path style=" stroke:none;fill-rule:nonzero;fill:rgb(100%,100%,100%);fill-opacity:1;" d="M 172.625 100.011719 C 172.625 140.117188 140.117188 172.625 100.011719 172.625 C 59.90625 172.625 27.394531 140.117188 27.394531 100.011719 C 27.394531 59.90625 59.90625 27.394531 100.011719 27.394531 C 140.117188 27.394531 172.625 59.90625 172.625 100.011719 Z M 172.625 100.011719 "/>
<path style=" stroke:none;fill-rule:nonzero;fill:rgb(0%,0%,0%);fill-opacity:1;" d="M 117.835938 65.355469 C 111.253906 65.355469 105.953125 70.652344 105.953125 77.238281 L 105.953125 122.785156 C 105.953125 129.371094 111.253906 134.667969 117.835938 134.667969 L 128.726562 134.667969 C 135.308594 134.667969 140.609375 129.371094 140.609375 122.785156 L 140.609375 77.238281 C 140.609375 70.652344 135.308594 65.355469 128.726562 65.355469 Z M 120.804688 75.257812 L 125.757812 75.257812 C 128.5 75.257812 130.707031 77.464844 130.707031 80.207031 L 130.707031 119.816406 C 130.707031 122.558594 128.5 124.765625 125.757812 124.765625 L 120.804688 124.765625 C 118.0625 124.765625 115.855469 122.558594 115.855469 119.816406 L 115.855469 80.207031 C 115.855469 77.464844 118.0625 75.257812 120.804688 75.257812 Z M 120.804688 75.257812 "/>
<path style=" stroke:none;fill-rule:nonzero;fill:rgb(0%,0%,0%);fill-opacity:1;" d="M 74.265625 90.109375 C 66.039062 90.109375 59.414062 96.734375 59.414062 104.960938 L 59.414062 119.816406 C 59.414062 128.042969 66.039062 134.667969 74.265625 134.667969 L 79.21875 134.667969 C 87.445312 134.667969 94.070312 128.042969 94.070312 119.816406 L 94.070312 104.960938 C 94.070312 96.734375 87.445312 90.109375 79.21875 90.109375 Z M 74.265625 100.011719 L 79.21875 100.011719 C 81.960938 100.011719 84.167969 102.21875 84.167969 104.960938 L 84.167969 119.816406 C 84.167969 122.558594 81.960938 124.765625 79.21875 124.765625 L 74.265625 124.765625 C 71.523438 124.765625 69.316406 122.558594 69.316406 119.816406 L 69.316406 104.960938 C 69.316406 102.21875 71.523438 100.011719 74.265625 100.011719 Z M 74.265625 100.011719 "/>
<path style=" stroke:none;fill-rule:nonzero;fill:rgb(0%,0%,0%);fill-opacity:1;" d="M 71.296875 100.011719 C 64.710938 100.011719 59.414062 94.710938 59.414062 88.128906 L 59.414062 77.238281 C 59.414062 70.652344 64.710938 65.355469 71.296875 65.355469 L 82.1875 65.355469 C 88.769531 65.355469 94.070312 70.652344 94.070312 77.238281 L 94.070312 88.128906 C 94.070312 94.710938 88.769531 100.011719 82.1875 100.011719 Z M 74.265625 90.109375 L 79.21875 90.109375 C 81.960938 90.109375 84.167969 87.902344 84.167969 85.160156 L 84.167969 80.207031 C 84.167969 77.464844 81.960938 75.257812 79.21875 75.257812 L 74.265625 75.257812 C 71.523438 75.257812 69.316406 77.464844 69.316406 80.207031 L 69.316406 85.160156 C 69.316406 87.902344 71.523438 90.109375 74.265625 90.109375 Z M 74.265625 90.109375 "/>
</g>
</svg>
