<?xml version="1.0" encoding="UTF-8"?>
<svg xmlns="http://www.w3.org/2000/svg" xmlns:xlink="http://www.w3.org/1999/xlink" width="200px" height="200px" viewBox="0 0 200 200" version="1.1">
<g id="surface1">
<path style=" stroke:none;fill-rule:nonzero;fill:rgb(0%,0%,0%);fill-opacity:1;" d="M 17.492188 0.328125 L 182.527344 0.328125 C 192.007812 0.328125 199.691406 8.015625 199.691406 17.492188 L 199.691406 182.527344 C 199.691406 192.007812 192.007812 199.691406 182.527344 199.691406 L 17.492188 199.691406 C 8.015625 199.691406 0.328125 192.007812 0.328125 182.527344 L 0.328125 17.492188 C 0.328125 8.015625 8.015625 0.328125 17.492188 0.328125 Z M 17.492188 0.328125 "/>
<path style=" stroke:none;fill-rule:nonzero;fill:rgb(100%,100%,100%);fill-opacity:1;" d="M 17.492188 0.988281 L 182.527344 0.988281 C 191.644531 0.988281 199.03125 8.378906 199.03125 17.492188 L 199.03125 182.527344 C 199.03125 191.644531 191.644531 199.03125 182.527344 199.03125 L 17.492188 199.03125 C 8.378906 199.03125 0.988281 191.644531 0.988281 182.527344 L 0.988281 17.492188 C 0.988281 8.378906 8.378906 0.988281 17.492188 0.988281 Z M 17.492188 0.988281 "/>
<path style=" stroke:none;fill-rule:nonzero;fill:rgb(0%,27.45098%,66.666667%);fill-opacity:1;" d="M 192.429688 100.011719 C 192.429688 151.054688 151.054688 192.429688 100.011719 192.429688 C 48.96875 192.429688 7.589844 151.054688 7.589844 100.011719 C 7.589844 48.96875 48.96875 7.589844 100.011719 7.589844 C 151.054688 7.589844 192.429688 48.96875 192.429688 100.011719 Z M 192.429688 100.011719 "/>
<path style=" stroke:none;fill-rule:nonzero;fill:rgb(100%,100%,100%);fill-opacity:1;" d="M 159.527344 56.832031 L 83.671875 132.6875 L 118.683594 132.6875 L 100.011719 151.359375 L 48.664062 151.359375 L 48.664062 100.011719 L 67.335938 81.339844 L 67.335938 116.347656 L 143.191406 40.496094 Z M 159.527344 56.832031 "/>
</g>
</svg>
