<?xml version="1.0" encoding="UTF-8"?>
<svg xmlns="http://www.w3.org/2000/svg" xmlns:xlink="http://www.w3.org/1999/xlink" width="200px" height="200px" viewBox="0 0 200 200" version="1.1">
<g id="surface1">
<path style=" stroke:none;fill-rule:nonzero;fill:rgb(0%,0%,0%);fill-opacity:1;" d="M 17.492188 0.328125 L 182.527344 0.328125 C 192.007812 0.328125 199.691406 8.015625 199.691406 17.492188 L 199.691406 182.527344 C 199.691406 192.007812 192.007812 199.691406 182.527344 199.691406 L 17.492188 199.691406 C 8.015625 199.691406 0.328125 192.007812 0.328125 182.527344 L 0.328125 17.492188 C 0.328125 8.015625 8.015625 0.328125 17.492188 0.328125 Z M 17.492188 0.328125 "/>
<path style=" stroke:none;fill-rule:nonzero;fill:rgb(100%,100%,100%);fill-opacity:1;" d="M 17.492188 0.988281 L 182.527344 0.988281 C 191.644531 0.988281 199.03125 8.378906 199.03125 17.492188 L 199.03125 182.527344 C 199.03125 191.644531 191.644531 199.03125 182.527344 199.03125 L 17.492188 199.03125 C 8.378906 199.03125 0.988281 191.644531 0.988281 182.527344 L 0.988281 17.492188 C 0.988281 8.378906 8.378906 0.988281 17.492188 0.988281 Z M 17.492188 0.988281 "/>
<path style=" stroke:none;fill-rule:nonzero;fill:rgb(86.27451%,0%,0%);fill-opacity:1;" d="M 7.589844 100.011719 C 7.589844 48.96875 48.96875 7.589844 100.011719 7.589844 C 151.054688 7.589844 192.429688 48.96875 192.429688 100.011719 C 192.429688 151.054688 151.054688 192.429688 100.011719 192.429688 C 48.96875 192.429688 7.589844 151.054688 7.589844 100.011719 Z M 7.589844 100.011719 "/>
<path style=" stroke:none;fill-rule:nonzero;fill:rgb(100%,100%,100%);fill-opacity:1;" d="M 172.625 100.011719 C 172.625 140.117188 140.117188 172.625 100.011719 172.625 C 59.90625 172.625 27.394531 140.117188 27.394531 100.011719 C 27.394531 59.90625 59.90625 27.394531 100.011719 27.394531 C 140.117188 27.394531 172.625 59.90625 172.625 100.011719 Z M 172.625 100.011719 "/>
<path style=" stroke:none;fill-rule:nonzero;fill:rgb(0%,0%,0%);fill-opacity:1;" d="M 65.683594 162.066406 L 65.683594 82.847656 C 65.683594 73.703125 73.042969 66.34375 82.1875 66.34375 L 153.152344 66.34375 L 163.054688 76.246094 L 153.152344 86.148438 L 85.488281 86.148438 L 85.488281 162.066406 Z M 65.683594 162.066406 "/>
<path style=" stroke:none;fill-rule:nonzero;fill:rgb(86.27451%,0%,0%);fill-opacity:1;" d="M 148.648438 26.640625 L 163.820312 39.371094 L 51.371094 173.382812 L 36.203125 160.652344 Z M 148.648438 26.640625 "/>
</g>
</svg>
