<?xml version="1.0" encoding="UTF-8"?>
<svg xmlns="http://www.w3.org/2000/svg" xmlns:xlink="http://www.w3.org/1999/xlink" width="200px" height="200px" viewBox="0 0 200 200" version="1.1">
<g id="surface1">
<path style=" stroke:none;fill-rule:nonzero;fill:rgb(0%,0%,0%);fill-opacity:1;" d="M 17.492188 0.328125 L 182.527344 0.328125 C 192.007812 0.328125 199.691406 8.015625 199.691406 17.492188 L 199.691406 182.527344 C 199.691406 192.007812 192.007812 199.691406 182.527344 199.691406 L 17.492188 199.691406 C 8.015625 199.691406 0.328125 192.007812 0.328125 182.527344 L 0.328125 17.492188 C 0.328125 8.015625 8.015625 0.328125 17.492188 0.328125 Z M 17.492188 0.328125 "/>
<path style=" stroke:none;fill-rule:nonzero;fill:rgb(100%,100%,100%);fill-opacity:1;" d="M 17.492188 0.988281 L 182.527344 0.988281 C 191.644531 0.988281 199.03125 8.378906 199.03125 17.492188 L 199.03125 182.527344 C 199.03125 191.644531 191.644531 199.03125 182.527344 199.03125 L 17.492188 199.03125 C 8.378906 199.03125 0.988281 191.644531 0.988281 182.527344 L 0.988281 17.492188 C 0.988281 8.378906 8.378906 0.988281 17.492188 0.988281 Z M 17.492188 0.988281 "/>
<path style="fill:none;stroke-width:100.000214;stroke-linecap:round;stroke-linejoin:round;stroke:rgb(86.27451%,0%,0%);stroke-opacity:1;stroke-miterlimit:1.414;" d="M 541.408915 203.99405 L 64.593203 203.99405 L 303.001059 -208.9267 Z M 541.408915 203.99405 " transform="matrix(0.330071,0,0,0.330071,0,101.991796)"/>
<path style=" stroke:none;fill-rule:nonzero;fill:rgb(100%,100%,100%);fill-opacity:1;" d="M 100.011719 39.632812 L 172.984375 166.023438 L 27.039062 166.027344 Z M 100.011719 39.632812 "/>
<path style=" stroke:none;fill-rule:nonzero;fill:rgb(0%,0%,0%);fill-opacity:1;" d="M 106.710938 89.449219 L 105.917969 89.449219 L 135.492188 152.824219 L 135.492188 146.882812 Z M 106.710938 89.449219 "/>
<path style=" stroke:none;fill-rule:nonzero;fill:rgb(0%,0%,0%);fill-opacity:1;" d="M 101.167969 89.449219 L 104.335938 89.449219 L 130.871094 152.824219 L 106.613281 152.824219 Z M 101.167969 89.449219 "/>
<path style=" stroke:none;fill-rule:nonzero;fill:rgb(0%,0%,0%);fill-opacity:1;" d="M 93.3125 89.449219 L 94.101562 89.449219 L 64.527344 152.824219 L 64.527344 146.882812 Z M 93.3125 89.449219 "/>
<path style=" stroke:none;fill-rule:nonzero;fill:rgb(0%,0%,0%);fill-opacity:1;" d="M 98.855469 89.449219 L 95.6875 89.449219 L 69.148438 152.824219 L 93.410156 152.824219 Z M 98.855469 89.449219 "/>
<path style=" stroke:none;fill-rule:nonzero;fill:rgb(100%,100%,100%);fill-opacity:1;" d="M 131.367188 110.902344 L 68.65625 110.902344 L 68.65625 123.117188 L 131.367188 123.117188 Z M 131.367188 110.902344 "/>
<path style=" stroke:none;fill-rule:nonzero;fill:rgb(0%,0%,0%);fill-opacity:1;" d="M 77.144531 121.464844 C 75.960938 118.277344 72.925781 116.964844 69.261719 116.910156 L 64.527344 116.910156 L 64.527344 113.875 L 135.492188 113.875 L 135.492188 116.910156 L 130.761719 116.910156 C 127.09375 116.964844 124.0625 118.277344 122.878906 121.464844 L 119.722656 121.464844 C 118.539062 118.277344 115.507812 116.964844 111.839844 116.910156 L 88.183594 116.910156 C 84.515625 116.964844 81.484375 118.277344 80.300781 121.464844 Z M 77.144531 121.464844 "/>
</g>
</svg>
