<?xml version="1.0" encoding="UTF-8"?>
<svg xmlns="http://www.w3.org/2000/svg" xmlns:xlink="http://www.w3.org/1999/xlink" width="200px" height="200px" viewBox="0 0 200 200" version="1.1">
<g id="surface1">
<path style=" stroke:none;fill-rule:nonzero;fill:rgb(0%,0%,0%);fill-opacity:1;" d="M 0.328125 58.714844 L 0.328125 141.28125 L 58.714844 199.664062 L 141.28125 199.664062 L 199.664062 141.28125 L 199.664062 58.714844 L 141.28125 0.328125 L 58.714844 0.328125 Z M 0.328125 58.714844 "/>
<path style=" stroke:none;fill-rule:nonzero;fill:rgb(100%,100%,100%);fill-opacity:1;" d="M 59 1.023438 L 140.996094 1.023438 L 198.972656 59 L 198.972656 140.996094 L 140.996094 198.972656 L 59 198.972656 L 1.023438 140.996094 L 1.023438 59 Z M 59 1.023438 "/>
<path style=" stroke:none;fill-rule:nonzero;fill:rgb(86.27451%,0%,0%);fill-opacity:1;" d="M 139.21875 194.683594 L 60.777344 194.683594 L 5.3125 139.21875 L 5.3125 60.777344 L 60.777344 5.3125 L 139.21875 5.3125 L 194.683594 60.777344 L 194.683594 139.21875 Z M 139.21875 194.683594 "/>
<path style=" stroke:none;fill-rule:nonzero;fill:rgb(100%,100%,100%);fill-opacity:1;" d="M 42.589844 45.5625 C 35.542969 45.5625 29.867188 51.238281 29.867188 58.285156 L 29.867188 60.546875 C 29.867188 64.425781 31.636719 68.09375 34.667969 70.507812 L 49.476562 82.285156 C 50.484375 83.089844 51.074219 84.3125 51.074219 85.605469 L 51.074219 92.222656 C 51.074219 94.570312 49.183594 96.460938 46.832031 96.460938 L 42.589844 96.460938 C 40.242188 96.460938 38.351562 94.570312 38.351562 92.222656 L 38.351562 87.980469 L 29.867188 87.980469 L 29.867188 92.222656 C 29.867188 99.269531 35.542969 104.945312 42.589844 104.945312 L 46.832031 104.945312 C 53.882812 104.945312 59.558594 99.269531 59.558594 92.222656 L 59.558594 85.605469 C 59.558594 81.726562 57.789062 78.058594 54.753906 75.644531 L 39.949219 63.867188 C 38.9375 63.0625 38.351562 61.839844 38.351562 60.546875 L 38.351562 58.285156 C 38.351562 55.9375 40.242188 54.046875 42.589844 54.046875 L 46.832031 54.046875 C 49.183594 54.046875 51.074219 55.9375 51.074219 58.285156 L 51.074219 62.527344 L 59.558594 62.527344 L 59.558594 58.285156 C 59.558594 51.238281 53.882812 45.5625 46.832031 45.5625 Z M 42.589844 45.5625 "/>
<path style=" stroke:none;fill-rule:nonzero;fill:rgb(100%,100%,100%);fill-opacity:1;" d="M 93.492188 54.046875 L 85.011719 54.046875 L 85.011719 104.945312 L 76.527344 104.945312 L 76.527344 54.046875 L 68.042969 54.046875 L 68.042969 45.5625 L 93.492188 45.5625 Z M 93.492188 54.046875 "/>
<path style=" stroke:none;fill-rule:nonzero;fill:rgb(100%,100%,100%);fill-opacity:1;" d="M 114.703125 104.945312 C 107.652344 104.945312 101.976562 99.269531 101.976562 92.222656 L 101.976562 58.285156 C 101.976562 51.238281 107.652344 45.5625 114.703125 45.5625 L 123.1875 45.5625 C 130.234375 45.5625 135.910156 51.238281 135.910156 58.285156 L 135.910156 92.222656 C 135.910156 99.269531 130.234375 104.945312 123.1875 104.945312 Z M 114.703125 96.460938 L 123.1875 96.460938 C 125.535156 96.460938 127.429688 94.570312 127.429688 92.222656 L 127.429688 58.285156 C 127.429688 55.9375 125.535156 54.046875 123.1875 54.046875 L 114.703125 54.046875 C 112.351562 54.046875 110.460938 55.9375 110.460938 58.285156 L 110.460938 92.222656 C 110.460938 94.570312 112.351562 96.460938 114.703125 96.460938 Z M 114.703125 96.460938 "/>
<path style=" stroke:none;fill-rule:nonzero;fill:rgb(100%,100%,100%);fill-opacity:1;" d="M 144.394531 45.5625 L 161.363281 45.5625 C 168.414062 45.5625 174.085938 51.238281 174.085938 58.285156 L 174.085938 71.011719 C 174.085938 78.0625 168.414062 83.738281 161.363281 83.738281 L 152.878906 83.738281 L 152.878906 104.945312 L 144.394531 104.945312 Z M 152.878906 75.253906 L 161.363281 75.253906 C 163.710938 75.253906 165.601562 73.363281 165.601562 71.011719 L 165.601562 58.285156 C 165.601562 55.9375 163.710938 54.046875 161.363281 54.046875 L 152.878906 54.046875 Z M 152.878906 75.253906 "/>
<path style=" stroke:none;fill-rule:nonzero;fill:rgb(100%,100%,100%);fill-opacity:1;" d="M 47.988281 154.433594 C 45.050781 154.433594 42.6875 152.070312 42.6875 149.132812 L 42.6875 134.992188 C 42.6875 132.054688 45.050781 129.691406 47.988281 129.691406 L 51.523438 129.691406 C 54.460938 129.691406 56.824219 132.054688 56.824219 134.992188 L 56.824219 138.527344 L 53.292969 138.527344 L 53.292969 134.992188 C 53.292969 134.011719 52.503906 133.226562 51.523438 133.226562 L 47.988281 133.226562 C 47.007812 133.226562 46.222656 134.011719 46.222656 134.992188 L 46.222656 149.132812 C 46.222656 150.109375 47.007812 150.898438 47.988281 150.898438 L 51.523438 150.898438 C 52.503906 150.898438 53.292969 150.109375 53.292969 149.132812 L 53.292969 145.597656 L 56.824219 145.597656 L 56.824219 149.132812 C 56.824219 152.070312 54.460938 154.433594 51.523438 154.433594 Z M 47.988281 154.433594 "/>
<path style=" stroke:none;fill-rule:nonzero;fill:rgb(100%,100%,100%);fill-opacity:1;" d="M 74.5 129.691406 L 74.5 154.433594 L 70.964844 154.433594 L 70.964844 143.121094 L 63.894531 143.121094 L 63.894531 154.433594 L 60.359375 154.433594 L 60.359375 129.691406 L 63.894531 129.691406 L 63.894531 139.589844 L 70.964844 139.589844 L 70.964844 129.691406 Z M 74.5 129.691406 "/>
<path style=" stroke:none;fill-rule:nonzero;fill:rgb(100%,100%,100%);fill-opacity:1;" d="M 78.035156 129.691406 L 81.570312 129.691406 L 81.570312 154.433594 L 78.035156 154.433594 Z M 78.035156 129.691406 "/>
<path style=" stroke:none;fill-rule:nonzero;fill:rgb(100%,100%,100%);fill-opacity:1;" d="M 85.105469 129.691406 L 88.640625 129.691406 L 88.640625 150.898438 L 95.707031 150.898438 L 95.707031 154.433594 L 85.105469 154.433594 Z M 85.105469 129.691406 "/>
<path style=" stroke:none;fill-rule:nonzero;fill:rgb(100%,100%,100%);fill-opacity:1;" d="M 98.535156 129.691406 L 98.535156 154.433594 L 105.605469 154.433594 C 108.542969 154.433594 110.910156 152.070312 110.910156 149.132812 L 110.910156 134.992188 C 110.910156 132.054688 108.542969 129.691406 105.605469 129.691406 Z M 102.070312 133.226562 L 105.605469 133.226562 C 106.585938 133.226562 107.375 134.011719 107.375 134.992188 L 107.375 149.132812 C 107.375 150.109375 106.585938 150.898438 105.605469 150.898438 L 102.070312 150.898438 Z M 102.070312 133.226562 "/>
<path style=" stroke:none;fill-rule:nonzero;fill:rgb(100%,100%,100%);fill-opacity:1;" d="M 114.445312 129.691406 L 121.511719 129.691406 C 124.449219 129.691406 126.816406 132.054688 126.816406 134.992188 L 126.816406 138.527344 C 126.816406 141.464844 124.449219 143.828125 121.511719 143.828125 L 117.976562 143.828125 L 117.976562 154.433594 L 114.445312 154.433594 Z M 117.976562 140.292969 L 121.511719 140.292969 C 122.492188 140.292969 123.28125 139.507812 123.28125 138.527344 L 123.28125 134.992188 C 123.28125 134.011719 122.492188 133.226562 121.511719 133.226562 L 117.976562 133.226562 Z M 117.976562 140.292969 "/>
<path style=" stroke:none;fill-rule:nonzero;fill:rgb(100%,100%,100%);fill-opacity:1;" d="M 124.695312 141.707031 L 121.160156 141.707031 L 123.28125 154.433594 L 126.816406 154.433594 Z M 124.695312 141.707031 "/>
<path style=" stroke:none;fill-rule:nonzero;fill:rgb(100%,100%,100%);fill-opacity:1;" d="M 130.351562 129.691406 L 140.953125 129.691406 L 140.953125 133.226562 L 133.886719 133.226562 L 133.886719 139.585938 L 140.953125 139.585938 L 140.953125 143.121094 L 133.886719 143.121094 L 133.886719 150.898438 L 140.953125 150.898438 L 140.953125 154.433594 L 130.351562 154.433594 Z M 130.351562 129.691406 "/>
<path style=" stroke:none;fill-rule:nonzero;fill:rgb(100%,100%,100%);fill-opacity:1;" d="M 158.628906 154.433594 L 158.628906 129.691406 L 155.09375 129.691406 L 155.09375 145.242188 L 148.023438 129.691406 L 144.488281 129.691406 L 144.488281 154.433594 L 148.023438 154.433594 L 148.023438 138.878906 L 155.09375 154.433594 Z M 158.628906 154.433594 "/>
</g>
</svg>
