<?xml version="1.0" encoding="UTF-8"?>
<svg xmlns="http://www.w3.org/2000/svg" xmlns:xlink="http://www.w3.org/1999/xlink" width="200px" height="200px" viewBox="0 0 200 200" version="1.1">
<g id="surface1">
<path style=" stroke:none;fill-rule:nonzero;fill:rgb(0%,0%,0%);fill-opacity:1;" d="M 17.492188 0.328125 L 182.527344 0.328125 C 192.007812 0.328125 199.691406 8.015625 199.691406 17.492188 L 199.691406 182.527344 C 199.691406 192.007812 192.007812 199.691406 182.527344 199.691406 L 17.492188 199.691406 C 8.015625 199.691406 0.328125 192.007812 0.328125 182.527344 L 0.328125 17.492188 C 0.328125 8.015625 8.015625 0.328125 17.492188 0.328125 Z M 17.492188 0.328125 "/>
<path style=" stroke:none;fill-rule:nonzero;fill:rgb(100%,100%,100%);fill-opacity:1;" d="M 17.492188 0.988281 L 182.527344 0.988281 C 191.644531 0.988281 199.03125 8.378906 199.03125 17.492188 L 199.03125 182.527344 C 199.03125 191.644531 191.644531 199.03125 182.527344 199.03125 L 17.492188 199.03125 C 8.378906 199.03125 0.988281 191.644531 0.988281 182.527344 L 0.988281 17.492188 C 0.988281 8.378906 8.378906 0.988281 17.492188 0.988281 Z M 17.492188 0.988281 "/>
<path style=" stroke:none;fill-rule:nonzero;fill:rgb(86.27451%,0%,0%);fill-opacity:1;" d="M 192.429688 100.011719 C 192.429688 151.054688 151.054688 192.429688 100.011719 192.429688 C 48.96875 192.429688 7.589844 151.054688 7.589844 100.011719 C 7.589844 48.96875 48.96875 7.589844 100.011719 7.589844 C 151.054688 7.589844 192.429688 48.96875 192.429688 100.011719 Z M 192.429688 100.011719 "/>
<path style=" stroke:none;fill-rule:nonzero;fill:rgb(100%,100%,100%);fill-opacity:1;" d="M 172.625 100.011719 C 172.625 140.117188 140.117188 172.625 100.011719 172.625 C 59.90625 172.625 27.394531 140.117188 27.394531 100.011719 C 27.394531 59.90625 59.90625 27.394531 100.011719 27.394531 C 140.117188 27.394531 172.625 59.90625 172.625 100.011719 Z M 172.625 100.011719 "/>
<path style=" stroke:none;fill-rule:nonzero;fill:rgb(0%,0%,0%);fill-opacity:1;" d="M 55.121094 100.011719 L 35.316406 109.914062 L 35.316406 90.109375 Z M 55.121094 100.011719 "/>
<path style=" stroke:none;fill-rule:nonzero;fill:rgb(0%,0%,0%);fill-opacity:1;" d="M 68.820312 82.683594 C 65.527344 82.683594 62.878906 85.332031 62.878906 88.625 L 62.878906 92.585938 L 67.828125 92.585938 L 67.828125 90.109375 C 67.828125 88.738281 68.933594 87.632812 70.304688 87.632812 C 71.675781 87.632812 72.78125 88.738281 72.78125 90.109375 L 72.78125 92.945312 C 72.78125 94.898438 72.207031 96.804688 71.125 98.425781 L 64.117188 108.972656 C 63.308594 110.191406 62.878906 111.621094 62.878906 113.082031 L 62.878906 117.339844 L 77.730469 117.339844 L 77.730469 112.390625 L 67.796875 112.386719 L 75.25 101.167969 C 76.867188 98.730469 77.730469 95.871094 77.730469 92.945312 L 77.730469 88.625 C 77.730469 85.332031 75.082031 82.683594 71.789062 82.683594 Z M 68.820312 82.683594 "/>
<path style=" stroke:none;fill-rule:nonzero;fill:rgb(0%,0%,0%);fill-opacity:1;" d="M 98.527344 82.683594 C 95.234375 82.683594 92.585938 85.332031 92.585938 88.625 L 92.585938 92.585938 L 97.535156 92.585938 L 97.535156 90.109375 C 97.535156 88.738281 98.640625 87.632812 100.011719 87.632812 C 101.382812 87.632812 102.488281 88.738281 102.488281 90.109375 L 102.488281 95.058594 C 102.488281 96.433594 101.382812 97.535156 100.011719 97.535156 L 97.535156 97.535156 L 97.535156 102.488281 L 100.011719 102.488281 C 101.382812 102.488281 102.488281 103.589844 102.488281 104.960938 L 102.488281 109.914062 C 102.488281 111.285156 101.382812 112.390625 100.011719 112.390625 C 98.640625 112.390625 97.535156 111.285156 97.535156 109.914062 L 97.535156 107.4375 L 92.585938 107.4375 L 92.585938 111.398438 C 92.585938 114.691406 95.234375 117.339844 98.527344 117.339844 L 101.496094 117.339844 C 104.789062 117.339844 107.4375 114.691406 107.4375 111.398438 L 107.4375 102.488281 C 107.4375 101.117188 106.332031 100.011719 104.960938 100.011719 C 106.332031 100.011719 107.4375 98.90625 107.4375 97.535156 L 107.4375 88.625 C 107.4375 85.332031 104.789062 82.683594 101.496094 82.683594 Z M 98.527344 82.683594 "/>
<path style=" stroke:none;fill-rule:nonzero;fill:rgb(0%,0%,0%);fill-opacity:1;" d="M 82.683594 112.390625 L 82.683594 117.339844 L 87.632812 117.339844 L 87.632812 112.390625 "/>
<path style=" stroke:none;fill-rule:nonzero;fill:rgb(0%,0%,0%);fill-opacity:1;" d="M 112.390625 92.585938 L 112.390625 117.339844 L 117.339844 117.339844 L 117.339844 100.011719 C 117.339844 98.640625 118.445312 97.535156 119.816406 97.535156 C 121.1875 97.535156 122.292969 98.640625 122.292969 100.011719 L 122.292969 117.339844 L 127.242188 117.339844 L 127.242188 100.011719 C 127.242188 98.640625 128.347656 97.535156 129.71875 97.535156 C 131.089844 97.535156 132.191406 98.640625 132.191406 100.011719 L 132.191406 117.339844 L 137.144531 117.339844 L 137.144531 98.03125 C 137.144531 95.015625 134.714844 92.585938 131.699219 92.585938 C 129.777344 92.585938 128.09375 93.570312 127.125 95.066406 C 126.050781 93.5625 124.289062 92.585938 122.292969 92.585938 C 120.21875 92.585938 118.402344 93.636719 117.339844 95.234375 L 117.339844 92.585938 Z M 112.390625 92.585938 "/>
<path style=" stroke:none;fill-rule:nonzero;fill:rgb(0%,0%,0%);fill-opacity:1;" d="M 144.902344 100.011719 L 164.707031 109.914062 L 164.707031 90.109375 Z M 144.902344 100.011719 "/>
</g>
</svg>
