<?xml version="1.0" encoding="UTF-8"?>
<svg xmlns="http://www.w3.org/2000/svg" xmlns:xlink="http://www.w3.org/1999/xlink" width="200px" height="200px" viewBox="0 0 200 200" version="1.1">
<g id="surface1">
<path style=" stroke:none;fill-rule:nonzero;fill:rgb(0%,0%,0%);fill-opacity:1;" d="M 17.492188 0.328125 L 182.527344 0.328125 C 192.007812 0.328125 199.691406 8.015625 199.691406 17.492188 L 199.691406 182.527344 C 199.691406 192.007812 192.007812 199.691406 182.527344 199.691406 L 17.492188 199.691406 C 8.015625 199.691406 0.328125 192.007812 0.328125 182.527344 L 0.328125 17.492188 C 0.328125 8.015625 8.015625 0.328125 17.492188 0.328125 Z M 17.492188 0.328125 "/>
<path style=" stroke:none;fill-rule:nonzero;fill:rgb(100%,100%,100%);fill-opacity:1;" d="M 17.492188 0.988281 L 182.527344 0.988281 C 191.644531 0.988281 199.03125 8.378906 199.03125 17.492188 L 199.03125 182.527344 C 199.03125 191.644531 191.644531 199.03125 182.527344 199.03125 L 17.492188 199.03125 C 8.378906 199.03125 0.988281 191.644531 0.988281 182.527344 L 0.988281 17.492188 C 0.988281 8.378906 8.378906 0.988281 17.492188 0.988281 Z M 17.492188 0.988281 "/>
<path style="fill:none;stroke-width:100.000214;stroke-linecap:round;stroke-linejoin:round;stroke:rgb(86.27451%,0%,0%);stroke-opacity:1;stroke-miterlimit:1.414;" d="M 541.408915 203.99405 L 64.593203 203.99405 L 303.001059 -208.9267 Z M 541.408915 203.99405 " transform="matrix(0.330071,0,0,0.330071,0,101.991796)"/>
<path style=" stroke:none;fill-rule:nonzero;fill:rgb(100%,100%,100%);fill-opacity:1;" d="M 100.011719 39.632812 L 172.984375 166.027344 L 27.039062 166.027344 Z M 100.011719 39.632812 "/>
<path style=" stroke:none;fill-rule:nonzero;fill:rgb(0%,0%,0%);fill-opacity:1;" d="M 92.988281 84.121094 C 81.21875 86.199219 70.972656 93.375 64.996094 103.726562 C 59.019531 114.074219 57.929688 126.539062 62.015625 137.769531 L 100.011719 123.941406 L 95.570312 98.75 L 100.011719 90.933594 Z M 92.988281 84.121094 "/>
<path style=" stroke:none;fill-rule:nonzero;fill:rgb(0%,0%,0%);fill-opacity:1;" d="M 138.007812 137.769531 C 142.09375 126.539062 141.003906 114.074219 135.027344 103.726562 C 129.050781 93.375 118.804688 86.199219 107.03125 84.121094 L 100.011719 123.941406 L 124.050781 132.691406 L 128.597656 140.445312 Z M 138.007812 137.769531 "/>
<path style=" stroke:none;fill-rule:nonzero;fill:rgb(0%,0%,0%);fill-opacity:1;" d="M 69.039062 149.933594 C 76.71875 159.085938 88.058594 164.375 100.011719 164.375 C 111.964844 164.375 123.304688 159.085938 130.984375 149.929688 L 100.011719 123.941406 L 80.414062 140.382812 L 71.425781 140.445312 Z M 69.039062 149.933594 "/>
<path style=" stroke:none;fill-rule:nonzero;fill:rgb(100%,100%,100%);fill-opacity:1;" d="M 125.59375 123.941406 C 125.59375 138.070312 114.140625 149.523438 100.011719 149.523438 C 85.882812 149.523438 74.429688 138.070312 74.429688 123.941406 C 74.429688 109.8125 85.882812 98.359375 100.011719 98.359375 C 114.140625 98.359375 125.59375 109.8125 125.59375 123.941406 Z M 125.59375 123.941406 "/>
</g>
</svg>
