<?xml version="1.0" encoding="UTF-8"?>
<svg xmlns="http://www.w3.org/2000/svg" xmlns:xlink="http://www.w3.org/1999/xlink" width="200px" height="200px" viewBox="0 0 200 200" version="1.1">
<g id="surface1">
<path style=" stroke:none;fill-rule:nonzero;fill:rgb(0%,0%,0%);fill-opacity:1;" d="M 17.492188 0.328125 L 182.527344 0.328125 C 192.007812 0.328125 199.691406 8.015625 199.691406 17.492188 L 199.691406 182.527344 C 199.691406 192.007812 192.007812 199.691406 182.527344 199.691406 L 17.492188 199.691406 C 8.015625 199.691406 0.328125 192.007812 0.328125 182.527344 L 0.328125 17.492188 C 0.328125 8.015625 8.015625 0.328125 17.492188 0.328125 Z M 17.492188 0.328125 "/>
<path style=" stroke:none;fill-rule:nonzero;fill:rgb(100%,100%,100%);fill-opacity:1;" d="M 17.492188 0.988281 L 182.527344 0.988281 C 191.644531 0.988281 199.03125 8.378906 199.03125 17.492188 L 199.03125 182.527344 C 199.03125 191.644531 191.644531 199.03125 182.527344 199.03125 L 17.492188 199.03125 C 8.378906 199.03125 0.988281 191.644531 0.988281 182.527344 L 0.988281 17.492188 C 0.988281 8.378906 8.378906 0.988281 17.492188 0.988281 Z M 17.492188 0.988281 "/>
<path style="fill:none;stroke-width:100.000214;stroke-linecap:round;stroke-linejoin:round;stroke:rgb(86.27451%,0%,0%);stroke-opacity:1;stroke-miterlimit:1.414;" d="M 541.408915 203.99405 L 64.593203 203.99405 L 303.001059 -208.9267 Z M 541.408915 203.99405 " transform="matrix(0.330071,0,0,0.330071,0,101.991796)"/>
<path style=" stroke:none;fill-rule:nonzero;fill:rgb(100%,100%,100%);fill-opacity:1;" d="M 100.011719 39.632812 L 172.984375 166.027344 L 27.039062 166.027344 Z M 100.011719 39.632812 "/>
<path style=" stroke:none;fill-rule:nonzero;fill:rgb(0%,0%,0%);fill-opacity:1;" d="M 89.285156 83.507812 L 89.285156 113.214844 L 59.578125 113.214844 L 59.578125 134.667969 L 89.285156 134.667969 L 89.285156 164.375 L 110.738281 164.375 L 110.738281 134.667969 L 140.445312 134.667969 L 140.445312 113.214844 L 110.738281 113.214844 L 110.738281 83.507812 Z M 89.285156 83.507812 "/>
</g>
</svg>
